<svg height="128" viewBox="0 0 128 128" width="128" xmlns="http://www.w3.org/2000/svg"><g fill="none" fill-rule="evenodd"><ellipse cx="64" cy="63.939333" fill="#fff" rx="60" ry="59.939333"/><g transform="translate(16.327206 16.314803)"><path d="m24.7577117 5.31201525c7.7173223-3.41097437 13.4282993-2.90249761 21.8826932-.76129735 5.7489878 1.45601617 10.6477732 4.59049545 14.6963562 9.4034378-2.2011143-.4935261-4.6302641-.6957505-7.2874494-.6066734s-6.2604241.4935261-10.8097166 1.2133468c-5.2089189-1.2374392-8.8728865-1.90478-10.9919028-2.0020222-6.1303671-.2813243-10.4408535 1.1630098-12.8137652 2.5480283-5.4048583 3.1547017-6.2550607 4.4893832-7.5910931 7.2800809-.8906883 1.8604651-1.3360324 4.0444894-1.3360324 6.5520728-1.34161912.5171389-3.02178106 1.6495959-5.04048581 3.3973711-1.79496586 1.5540641-3.61035312 3.4530347-5.44616178 5.6969119 2.90320609-14.0923766 12.00392509-25.9270544 24.33219209-32.53860939z" fill="#192140"/><path d="m86.5209531 20.3593571c-.2754959-.3740737-.4835575-.6534891-.6241849-.8382461-9.0288352-11.86212665-23.3061804-19.52044366-39.3740317-19.52044366-2.8939596 0-5.7298366.2484292-8.4874275.72510438 4.2326262.00290371 15.8318165 1.82292393 23.6050959 9.52767618 7.7732793 7.7047523 7.7125506 11.5874621 7.8340081 12.9221436.4453441.0808898.8704453.2224469 1.2753036.4246714 2.2245112-1.1013075 4.876333-1.9910952 7.9554656-2.669363 3.0791325-.6782678 5.6843895-.8687821 7.8157709-.5715428z" fill="#6ab3af"/><g fill="#192140"><path d="m34.0695547 81.0522346c-1.4979758-.768453-3.5425102-2.8715875-6.1336033-6.3094035-3.8866397-5.1567239-4.3117409-7.6440849-5.0404858-8.6147623-.728745-.9706775-.9716599-1.0313448-2.2469636-2.0020223-1.2753036-.9706774-2.9757085-1.5773508-8.0161943-6.9767442-2.2763492-2.4384365-3.91916115-4.6322907-5.10121458-7.2800809-.78803563-1.7651934-1.17265101-3.0998749-1.15384616-4.0040445-1.33603239 2.5075835-2.3076923 4.8938322-2.91497975 7.1587463-.91093118 3.397371-1.51821863 6.3094034-.6680162 11.8907987.56680162 3.7209303 1.59919029 7.1587462 3.09716599 10.313448.12145749-2.5884732.60728745-4.5500506 1.45748988-5.8847321 1.27530365-2.0020222 2.4291498-3.7613751 5.10121462-3.9433771 2.6720647-.1820021 4.4939271.9706774 5.5263157 3.033367 1.0323887 2.0626896 1.2753037 4.0040445-.3036437 5.2173913-1.5789473 1.2133468-3.6437247 1.2740142-4.6761133 0-1.0323887-1.2740141-.7894737-3.8827098.9716599-4.3073812s.3036437.4246714.3036437.9100101c0 .4853388-.0607287 1.6986856.8502024 2.0626896.9109312.3640041 1.8825911-.364004 1.8825911-1.2133468s-.7287449-2.6086957-1.8825911-3.4580384c-1.1538461-.8493428-2.7935222-.7886755-3.8866396 0-1.0931175.7886754-3.03643729 2.3053589-3.03643729 6.6127401s1.63967612 8.1294237 4.79757089 9.9494439c3.1578947 1.8200202 4.3724696 2.0626896 5.8299595 1.8200202 1.4574899-.2426693 4.1902834-1.0920121 5.708502-2.0020222.7000267-.4195914 2.4898785-1.2133468 5.1619433-2.0020223 1.7813765-.5257836 3.2388664-.8493427 4.3724697-.9706774z"/><path d="m20.1626721 94.9450556c1.2955465.6066734 2.7530364.8291203 4.3724696.6673408 2.4291498-.2426694 3.3593989-.4702177 5.708502-1.4560162 1.5660688-.657199 2.9223441-1.3649847 4.0688259-2.1233569-.3238866.9706774-.4858299 1.8200202-.4858299 2.5480283 0 1.0920121-.3643725 3.3367037-1.2145749 4.9747219-.5668016 1.0920125-1.2348178 2.0020225-2.0040486 2.7300305-1.3360324-.647118-2.9757085-1.658241-4.9190283-3.0333672-1.9433199-1.3751264-3.7854251-2.8109201-5.5263158-4.3073812z"/><path d="m35.405587 104.591163c1.3124185-.516698 2.5269934-1.143593 3.6437247-1.880688 1.1167314-.737094 2.1693629-1.606659 3.1578948-2.608695.0055379 1.575534.0343745 2.862425.0865096 3.860671s.1447561 2.036937.2778628 3.116073c-1.1765848-.313458-2.3717487-.680835-3.5854917-1.102133s-2.407243-.883041-3.5805002-1.385228z"/><path d="m70.4460729 70.0107786c.6477733-.2426694 1.5384615-.8897877 2.6720648-1.9413549 1.7004048-1.5773509 2.7327935-3.5187058 3.8866396-6.4307382 1.1538462-2.9120323 1.6396761-3.5187057 2.7327936-5.2780586 1.0931174-1.7593529 1.0931174-2.1233569 3.2186234-4.3073812 2.1255061-2.1840243 3.9473685-3.4580384 5.5870446-7.7047523.7470827-1.9349228 1.4574898-3.8220424.2429149-7.7047522-.8097166-2.5884733-1.8421052-4.2264915-3.0971659-4.9140546.3238866-.2831143 1.3562753-.3235592 3.0971659-.1213347 2.6113361.3033367 10.1417005 2.4873609 14.0890692 11.4661274 3.947368 8.9787664 3.218623 17.5935288-.728745 24.6309403-1.900239 3.3877655-6.740891 8.008089-10.9311744 9.3427705-2.0433088.650831-4.9445011 1.0772472-6.9661776 1.145297-1.3477844.0453665-2.2645916.0882723-2.7504215.1287171 3.4008097-1.0920121 6.5182186-3.1344792 9.3522267-6.1274014 4.2510121-4.4893832 5.3441295-10.4954499 4.7975708-14.1354904-.5465587-3.6400404-2.4898785-4.9140546-4.3724696-5.1567239-1.8825911-.2426694-4.7368421.546006-6.3157895 2.7300303s-.9716599 4.4287159.728745 4.9747219c1.7004048.5460061 3.7651821-.4853387 4.0080971-1.5166835s-.1214575-1.4560161-.9109312-1.0313448c-.7894736.4246714-1.7004048 1.5773509-2.854251.9100101-1.1538461-.6673407-.0607287-2.6693629 1.2145749-3.6400404 1.2753037-.9706774 3.7044535-1.1526795 4.7368421-.4246714 1.0323887.7280081 1.8825911 2.1233569 1.0323887 4.7927199s-2.7327935 4.9140546-6.5587045 7.0374116c-3.8259109 2.1233569-8.2591093 2.1840242-10.2024291 2.4266936-1.2955466.1617796-3.1983806.4448938-5.708502.8493428z"/><path d="m89.6048084 79.9460903c-9.6818421 11.9933024-23.8956343 20.1827627-40.0419381 21.9715717.1105094-.807847.2704487-1.574322.4783443-2.3012212.9716599-3.397371 5.0404858-9.7674418 13.6639676-13.6501516 8.1696143-3.6783567 18.4649029-3.8719544 25.8255562-5.9970715z"/></g></g><g transform="translate(4 4)"><path d="m60.0001927 0c28.4112906 0 52.2103803 19.7188412 58.4207843 46.1986605-3.566266-5.5596861-8.713779-10.0114258-14.809501-12.7217116-8.9482955-14.6905715-25.1323561-24.50196366-43.6112833-24.50196366-26.4311044 0-48.1672201 20.07279026-50.75443407 45.78519986-3.71107733 6.1869716-5.84493799 13.4263178-5.84493799 21.1633387 0 1.5691592.0877713 3.1178478.25867888 4.6414373-2.36734937-6.4377631-3.65949952-13.3936344-3.65949952-20.6508704 0-33.0896386 26.8630013-59.9140907 60.0001927-59.9140907z" fill="#192140"/><path d="m23.704614 47.8704687-.3094248.2613701c-6.7431428 5.7798617-11.0151201 14.3648723-11.0151201 23.9779479 0 18.5707144 15.4269065 40.2984503 34.657948 46.3989293l.0879338.028153c-.022364.002366-.0447334.004709-.0671082.007029-18.0033537-3.943399-32.9775707-15.983885-40.91796979-32.1135923-.83645278-3.3311653-1.28257331-6.7570363-1.28257331-10.1936936 0-13.7938815 7.1870847-25.908322 18.0191136-32.7994772.1186845 1.5672303.4036062 3.0582359.8272008 4.4333338z" fill="#6ab3af"/><path d="m87.4493927 38.1597573c1.3765182-.9302325 2.9149798-1.5975733 4.6153846-2.0020222 2.5506073-.6066734 7.1659919-1.3953489 12.5101217 1.3346815 2.593772 1.3250199 8.744939 4.7927199 12.327935 12.2548028 2.388664 4.974722 3.218623 9.6865521 2.489879 14.1354904-.607288-4.3276036-1.902834-8.2912032-3.88664-11.8907988-2.975709-5.3993933-8.805668-9.2821031-14.271255-10.3134479-3.6437249-.6875632-7.2267208-.6066734-10.748988.2426694-.2993964-.6303626-.7244976-1.2977034-1.2753037-2.0020223s-1.1378506-1.2907699-1.7611336-1.7593529z" fill="#6ab3af"/><path d="m115.384615 82.8109201.041151.1239517c-8.808074 21.1629852-29.4075925 36.1966542-53.6060167 36.9167522l.002113.027041c-.109019-1.166879-.1491405-2.276902-.1203646-3.330066 19.0128861-1.428361 35.577524-11.621794 45.6586283-26.5463011 3.073954-1.7355452 5.74902-4.1324232 8.024489-7.1913778z" fill="#192140"/></g><g transform="translate(31.449393 32.256994)"><g fill="#ef2a36"><path d="m11.5384615 49.8825413c.1214575.364004.728745 1.7795753 1.8218624 4.2467138.9183897 2.0727825 3.5222672 7.0374115 7.4696356 9.8281092s6.6159856 3.3973711 9.2565776 3.3973711c10.0551633 0 11.8285877-7.2194135 10.8580542-11.1021234-.9705334-3.8827098-3.0562792-10.1631302-9.2807965-12.8008089-3.104469-1.3155383-7.0794926-2.3884073-10.8292127-3.4801402-3.7497201-1.091733-7.7507189-2.956524-10.4617946-4.5279487-3.55862266-2.0626896-7.01621849-5.2578362-10.3727875-9.5854399 2.42633364 5.6622852 5.25705621 9.8685541 8.49216773 12.6188069 2.26880457 1.92877 6.31785947 4.6341841 10.91850137 6.6734075 5.337934 2.3660263 8.5407163 3.6765919 11.5859543 7.4014156 4.7118786 5.7633973 3.8616762 10.1921132 1.6377048 11.8907987-2.2239714 1.6986856-5.2423852.7886755-7.6428101-.728008-2.400425-1.5166836-3.33642-3.8827099-3.33642-5.338726 0-1.4560162.6671714-2.4266937 1.6377048-2.4266937.9705335 0 2.1099413.2759628 2.8812862 1.0313448.5142299.5035881.8178736 1.1911513.9109311 2.0626896-.3244498-.4448938-.7293081-.8291203-1.2145749-1.1526795-.7279-.4853387-1.6071089-.728008-2.0923757-.2426693-.4852667.4853387-.4852667 2.3053589.4852668 3.2760364 1.4558001 1.5773508 3.2754096 2.5480283 4.245943 1.5773508.9705335-.9706774 1.1870769-2.1840242.6067242-4.6107179-.5803526-2.4266936-1.6078535-5.1567239-3.306287-6.8554095-1.6984335-1.6986855-2.1862348-2.1233569-4.2153472-2.2446916-2.0291125-.1213347-3.6186609.2426694-5.9263532.6673408-1.5384615.2831142-2.9149798.4246714-4.1295547.4246714z"/><path d="m32.4291498 41.5711156v.182002c-2.2672065-.9302326-4.0890688-1.6582406-5.465587-2.1840243-2.0647774-.7886754-4.7975709-1.0313448-8.5020243-3.5793731-3.7044535-2.5480283-5.3441296-4.1253791-6.437247-6.9767442-.1397874-.3646313-.3306838-.9243495-.5726893-1.6791544 1.7583111 1.4025505 4.8034585 2.5082748 9.1354423 3.3171726 4.3319838.8088979 7.1911649 1.2283413 8.5775433 1.2583302-.5284873 1.0669833-.6953607 2.3462254-.5006202 3.8377265.1947405 1.491501 1.4498013 3.4328559 3.7651822 5.8240647z"/><path d="m40.0809717 48.2445231c-.0404859-2.6289181.5668016-5.3791709 1.8218623-8.2507584 1.8825911-4.3073812 2.7327935-5.4600606 6.7408907-9.0394337 4.0080972-3.5793732 6.194332-4.6713853 9.1700405-7.644085 1.9838057-1.9817998 3.0566801-3.437816 3.2186235-4.3680485-1.6194332 1.0515672-4.2307693 1.9615773-7.8340081 2.7300303-5.4048583 1.1526795-12.3279353 2.6086957-15.6680162 4.6107179-3.340081 2.0020223-7.2874494 5.338726-7.5303644 8.008089s.7287449 3.8220425 2.9149798 6.1880687c2.1862348 2.3660263 3.4008097 3.2153691 4.7368421 4.6713853.8906882.9706774 1.7004048 2.0020222 2.4291498 3.0940344z"/></g><path d="m22.7125506 18.6388608c-.5569192 1.2518011 1.3713313 3.1407142 7.0445344 4.0040445s9.4643468-.2055688 11.4170041-1.5166836c3.6617687-2.4587002.746789-5.0067285-8.7449393-7.6440849 2.388664 1.9413549 3.2591093 3.437816 2.611336 4.4893832-.9716599 1.5773509-1.9433198 2.305359-6.3765182 2.305359-2.2699306 0-4.2510121-1.0920122-3.7651822-1.6380182.3238867-.3640041.7489879-.6268959 1.2753037-.7886755-1.9364129-.3087504-3.0902591-.0458586-3.4615385.7886755z" fill="#ffa79f"/><path d="m8.56275304 24.7055949c-.16194332-2.7502528.52631579-4.9544995 2.06477736-6.6127402 2.3076923-2.487361 4.979757-5.7633974 16.5182186-6.8554095 7.6923077-.7280081 13.2186235.8897877 16.5789474 4.8533873 3.805668-1.8200203 6.1336032-3.437816 6.9838056-4.8533873 1.2753037-2.12335692 1.8825911-2.85136501 1.0323887-5.70273002-.8502024-2.85136502-2.6720648-4.97472194-6.437247-5.27805865-3.7651822-.3033367-12.8137652-.72800809-22.7732793 1.88068757-9.9595142 2.60869565-15.54655873 8.6754297-16.51821865 11.3447927s-.48582996 5.5813954.42510121 7.4620829c.60728745 1.2537917 1.31578948 2.5075834 2.12550608 3.7613752z" fill="#ffa79f"/><path d="m42.7530364 61.7733401c.6477733-.4448939 1.194332-.8493428 1.6396762-1.2133469.6680161-.546006 1.7611336-2.0020222 4.1902834-3.8220424 2.4291497-1.8200203 4.1295546-3.2760364 6.0728744-4.3073812 1.9433199-1.0313448 2.9757085-2.0626896 3.9473685-3.5187058.9716599-1.4560162.9716599-2.851365 1.7004048-5.4600607.48583-1.7391304 1.194332-3.4782608 2.1255061-5.2173913-3.0769231 1.2942366-5.7894737 2.6289181-8.1376518 4.0040445-3.5222672 2.0626896-5.8906883 4.1860465-6.680162 5.0960567-.7894737.9100101-4.5546558 6.1880687-4.5546558 7.2800808 0 1.0920122.4251012 2.8513651.3036437 4.0647119-.0809717.8088978-.2834008 1.8402426-.6072875 3.0940344z" fill="#ef2a36"/><path d="m23.6842105 29.7409841c-4.7773279-2.1435793-7.8340081-4.2062689-9.1700405-6.1880687-1.3360323-1.9817998-1.6194332-4.0647119-.8502024-6.2487361-1.902834 2.1031345-2.854251 3.8624873-2.854251 5.2780586 0 2.123357.7287449 3.9433772 5.1619433 5.2173913 2.9554656.8493428 5.5263158 1.4964611 7.7125506 1.9413549z" fill="#ef2a36"/><path d="m28.4817814 28.46697c-5.2226721.546006-10.0809717-3.2760364-11.7813765-6.0667341-1.7004049-2.7906977-2.4291498-5.6420627 3.4615384-8.008089 3.9271255-1.5773508 7.9149798-.3437816 11.9635628 3.7007078-4.8582996-1.6986855-8.2591093-1.9615773-10.2024292-.7886754-2.9149797 1.7593529 2.1847391 5.3259616 4.3724697 6.2487361 3.6437247 1.5369059 7.7935222 1.7997978 12.4493927.7886754-3.3603239 2.3862487-6.7813765 3.7613751-10.2631579 4.1253792z" fill="#ef2a36"/></g><g transform="translate(27.927126 79.773509)"><path d="m49.9190283 13.6501517c1.6194332-1.6177958 2.8542511-2.7502528 3.7044535-3.3973711 1.2753036-.97067747 3.1578947-1.63801821 6.4372469-2.18402428 3.2793523-.54600607 6.680162 0 12.2064778-1.51668352 3.6842105-1.01112234 6.8623482-3.19514661 9.5344129-6.5520728-.5263158 2.42669363-1.9433198 4.93427705-4.2510121 7.52275025-3.4615385 3.88270985-8.6842105 6.24873605-12.2064777 6.49140545-3.5222673.2426694-6.8016195-.182002-9.6558705-.5460061-1.902834-.2426693-3.8259109-.182002-5.7692308.1820021z" fill="#a3d8d5"/><path d="m41.1740891 26.6329626c1.6194332-4.0040445 2.7935222-6.6329626 3.5222672-7.8867543 1.0931174-1.8806876 3.3400809-3.8827098 7.7732793-3.8827098s6.3765182 1.2133468 7.6518219 1.5166835c.8502024.2022245 1.6801619.4246714 2.4898785.6673408-2.3886639 0-5.9109311.8493427-10.5668016 2.5480283-4.6558704 1.6986855-8.2793522 4.0444893-10.8704453 7.0374115z" fill="#6ab3af"/><path d="m39.1093117 21.3549039c-.8502024 1.0111224-1.7206477 2.2446917-2.611336 3.7007078-1.3360324 2.1840243-3.340081 6.4914055-6.437247 10.0707786-2.0647773 2.3862487-4.979757 3.8220425-8.7449392 4.3073812.8906882-.9302326 1.5182186-1.9413549 1.8825911-3.0333671.5465587-1.6380182.6072874-5.9453993 1.3967611-7.5227502s2.0040486-3.7007078 5.0404858-5.156724c3.0364373-1.4560161 3.8307859-1.3449755 5.7085021-1.4560161 1.2518107-.0740272 2.5068715-.3773639 3.7651821-.9100102z" fill="#a3d8d5"/><path d="m29.3927126 21.3549039c-.97166-.2022244-1.923077-.546006-2.8542511-1.0313447-1.3967611-.7280081-1.6396761-1.3346815-3.0364372-1.3346815s-4.0688259.3033367-6.0121458 1.2133468c-1.9433198.9100101-5.222672 2.4873609-7.65182182 3.215369-2.4291498.7280081-4.12955466 1.0313448-6.31578947.3033367-1.45748988-.4853387-2.63157895-1.1122345-3.52226721-1.8806875.56680162 1.2537917 1.31578947 2.3458038 2.24696356 3.2760364 1.39676114 1.3953488 4.25101215 4.2467138 8.56275304 4.1860465 4.3117409-.0606674 6.6801619-.7280081 9.6558704-2.669363s5.1619434-3.4580384 6.194332-4.1253792c.6882591-.4448938 1.5991903-.8291203 2.7327936-1.1526795z" fill="#a3d8d5"/><path d="m40.9311741 21.3549039c-1.0931174 2.2244692-1.9635628 4.2871588-2.611336 6.1880688-.97166 2.851365-2.2469636 7.5227503-2.5506073 11.041456-.2024292 2.3458039-.2631579 4.1860465-.1821863 5.520728-.4396041-.0178271-.9254341-.0380495-1.4574898-.0606673-.5320558-.0226178-.9976428-.0428402-1.3967612-.0606674-.242915-1.6986855-.3643724-3.2760364-.3643724-4.7320525v-4.4893833c1.417004-1.8604651 2.611336-3.6804853 3.5829959-5.4600606 1.4574899-2.669363 2.2469636-4.6713853 3.1578947-5.8240647.6072875-.768453 1.2145749-1.4762387 1.8218624-2.123357z" fill="#6ab3af"/></g></g></svg>