<svg height="128" viewBox="0 0 128 128" width="128" xmlns="http://www.w3.org/2000/svg"><g fill="none" fill-rule="evenodd"><ellipse cx="64" cy="63.935288" fill="#fff" rx="64" ry="63.935288"/><g transform="translate(13.14902 13.13579)"><path d="m26.3895841 5.67439457c8.2412588-3.64743531 14.3353549-3.10596616 23.3601811-.82029548 6.1322537 1.55308392 11.3576248 4.89652848 15.6761133 10.03033371-2.3478552-.5264278-4.9389483-.7421339-7.7732793-.6471183s-6.6777858.5264278-11.5303644 1.2942366c-5.5561802-1.3199352-9.4644123-2.0317654-11.7246963-2.1354904-6.5390583-.3000793-11.1369105 1.2405438-13.6680162 2.7178968-5.7651822 3.3650152-6.6720648 4.7886755-8.097166 7.7654196-.9500675 1.9844962-1.4251012 4.3141221-1.4251012 6.9888777-1.43106045.5516149-3.22323319 1.759569-5.37651826 3.6238625-1.91459294 1.6576361-3.85096785 3.6831581-5.80912475 6.0765661 3.09685416-15.0326739 12.80526511-27.6569213 25.95660871-34.70898901z" fill="#192140"/><path d="m92.2890166 21.7166476c-.2938622-.399012-.5157946-.6970551-.6657972-.8941292-9.6307575-12.6529351-24.8599257-20.82180657-41.9989672-20.82180657-3.0868901 0-6.1118256.26499114-9.053256.77344468 4.5148014.00309728 16.887271 1.94445219 25.178769 10.16285459s8.2267206 12.3599596 8.3562753 13.7836198c.4750337.0862825.928475.2372768 1.3603239.4529829 2.3728119-1.174728 5.2014219-2.1238349 8.4858299-2.8473206 3.2844081-.7234857 6.0633489-.9267009 8.3368223-.6096456z" fill="#6ab3af"/><g fill="#192140"><path d="m36.3408583 86.4557169c-1.5978408-.8196832-3.7786775-3.0630266-6.5425101-6.7300303-4.145749-5.5005056-4.5991903-8.1536906-5.3765182-9.1890799-.777328-1.0353893-1.0364373-1.1001011-2.3967612-2.1354904s-3.174089-1.6825076-8.5506073-7.4418605c-2.4281058-2.600999-4.18043851-4.94111-5.44129551-7.7654196-.84057133-1.882873-1.25082774-3.3065333-1.23076923-4.2709808-1.42510121 2.6747557-2.46153846 5.2200876-3.10931174 7.635996-.97165992 3.6238625-1.6194332 6.7300303-.71255061 12.6835187.6045884 3.9689922 1.70580297 7.6359959 3.30364373 11.0010111.12955465-2.7610381.64777328-4.8533873 1.55465587-6.2770475 1.36032388-2.1354904 2.59109309-4.0121335 5.44129559-4.206269 2.8502024-.1941355 4.7935222 1.0353893 5.8947368 3.2355915s1.3603239 4.2709808-.3238866 5.5652174c-1.6842106 1.2942366-3.8866397 1.3589484-4.9878543 0s-.8421053-4.1415571 1.0364373-4.5945399c1.8785425-.4529828.3238866.4529828.3238866.9706774 0 .5176947-.0647773 1.8119313.9068826 2.2002022.9716599.388271 2.0080971-.3882709 2.0080971-1.2942366 0-.9059656-.7773279-2.7826087-2.0080971-3.6885743s-2.9797571-.8412538-4.145749 0-3.2388664 2.4590496-3.2388664 7.0535895c0 4.59454 1.7489879 8.6713852 5.1174089 10.6127402 3.3684211 1.9413549 4.6639676 2.2002022 6.2186235 1.9413549 1.5546559-.2588474 4.4696356-1.164813 6.0890688-2.1354904.7466952-.4475641 2.6558705-1.2942366 5.5060729-2.1354904 1.9001349-.5608359 3.4547908-.9059657 4.6639676-1.0353893z"/><path d="m21.5068502 101.274726c1.3819163.647118 2.9365722.884395 4.6639676.71183 2.5910931-.258847 3.5833589-.501565 6.0890688-1.553084 1.6704734-.7010121 3.117167-1.4559834 4.340081-2.2649139-.3454791 1.0353893-.5182186 1.9413549-.5182186 2.7178969 0 1.164813-.388664 3.559151-1.2955466 5.30637-.6045884 1.164813-1.317139 2.13549-2.1376518 2.912032-1.4251012-.690259-3.1740891-1.76879-5.2469636-3.235591-2.0728744-1.466802-4.0377867-2.998315-5.8947368-4.59454z"/><path d="m37.7659595 111.563907c1.3999131-.551144 2.6954596-1.219833 3.8866397-2.006067s2.3139871-1.71377 3.368421-2.782608c.0059072 1.68057.0366662 3.053253.092277 4.118049s.1544064 2.172733.296387 3.323811c-1.2550238-.334354-2.5298653-.726224-3.8245245-1.175608-1.2946592-.449385-2.5677259-.94191-3.8192002-1.477577z"/><path d="m75.1424777 74.6781638c.6909582-.2588473 1.6410257-.9491068 2.8502025-2.0707786 1.8137651-1.6825075 2.9149797-3.7532861 4.1457489-6.859454 1.2307693-3.1061678 1.7489879-3.7532861 2.9149798-5.6299292s1.1659919-2.264914 3.4331984-4.5945399 4.2105263-3.6885743 5.9595142-8.2184024c.7968882-2.0639177 1.5546558-4.0768453.2591093-8.2184025-.8636977-2.7610381-1.9649123-4.5082575-3.3036438-5.2416582.3454791-.3019886 1.4466937-.3451298 3.3036438-.1294237 2.7854251.3235592 10.8178142 2.6531851 15.0283402 12.2305359 4.210526 9.5773509 3.433198 18.7664308-.777328 26.2730031-2.026921 3.6136165-7.190283 8.5419615-11.6599191 9.9656218-2.1795294.6942198-5.2741345 1.1490637-7.4305895 1.2216501-1.4376367.048391-2.4155644.0941571-2.933783.1372983 3.6275304-1.1648129 6.9527665-3.3434445 9.9757085-6.5358948 4.5344131-4.7886754 5.7004051-11.1951466 5.1174091-15.0778564s-2.6558706-5.2416583-4.6639678-5.5005056-5.0526316.5824065-6.7368421 2.9120324c-1.6842105 2.3296258-1.0364372 4.7239636.7773279 5.30637 1.8137652.5824065 4.0161944-.5176946 4.2753037-1.6177957s-.1295547-1.5530839-.9716599-1.1001011c-.8421053.4529828-1.8137652 1.6825075-3.0445344.9706774-1.2307693-.7118301-.0647774-2.8473205 1.2955465-3.8827098s3.951417-1.2295248 5.0526316-.4529828 2.0080975 2.2649141 1.1012146 5.1122346c-.9068826 2.8473205-2.9149798 5.2416582-6.9959514 7.5065723-4.0809717 2.264914-8.8097166 2.3296259-10.8825911 2.5884732-1.3819164.1725649-3.411606.4745534-6.0890689.9059656z"/><path d="m95.5772646 85.2773132c-10.3271937 12.7919498-25.4879126 21.5267368-42.7098075 23.4348158.1175697-.862084.2881406-1.679434.5098384-2.454592 1.0364373-3.623863 5.3765183-10.4186047 14.5748988-14.5601619 8.5253284-3.8385163 19.2207935-4.1193834 27.0322432-6.2522889z"/></g></g><path d="m64.0002056 0c30.3054555 0 55.6912044 21.0335403 62.3155554 49.278792-3.803912-5.9302435-9.294085-10.6784769-15.795576-13.5694782-9.5455-15.6701318-26.8087665-26.13599621-46.5199794-26.13599621-28.1928748 0-51.3778692 21.41051561-54.13797397 48.83666121-3.95834627 6.5995573-6.23468961 14.3218825-6.23468961 22.5751133 0 1.6747796.09373572 3.3276976.27625419 4.9538079-2.5251012-6.8677275-3.90379621-14.2883574-3.90379621-22.0305366 0-35.2956145 28.653868-63.9083634 64.0002056-63.9083634z" fill="#192140"/><path d="m25.2850214 51.0621573-.3301529.2784707c-7.1926856 6.1651858-11.7494615 15.3225305-11.7494615 25.5764779 0 19.8087619 16.455367 42.9850131 36.9684779 49.4921921l.0943413.029971c-.0236943.002507-.0473944.00499-.0711001.007449-19.2043253-4.205966-35.1770187-17.049214-43.64685226-34.2543729-.89221278-3.5531627-1.36808761-7.2074747-1.36808761-10.8732921 0-14.7129123 7.66563867-27.6345574 19.21906527-34.9852677.1280519 1.6716382.4319721 3.2618083.8837699 4.728372z" fill="#6ab3af"/><path d="m93.2793522 40.7037412c1.4682861-.9922481 3.1093118-1.7040782 4.9230769-2.1354904 2.7206479-.6471183 7.6437249-1.4883721 13.3441299 1.4236602 2.766691 1.4133546 9.327935 5.1122346 13.149797 13.0717897 2.547909 5.3063701 3.433199 10.3323222 2.655871 15.0778564-.647774-4.6161105-2.02969-8.8439501-4.145749-12.6835187-3.174089-5.7593529-9.392713-9.90091-15.222672-11.0010111-3.88664-.7334007-7.708502-.6471183-11.4655874.2588473-.3193561-.6723867-.7727974-1.3842169-1.3603239-2.1354904-.5875264-.7512735-1.2137073-1.3768212-1.8785425-1.876643z" fill="#6ab3af"/><path d="m123.076923 88.3316481.043652.1327967c-9.395463 22.5736632-31.3683096 38.6093582-57.1799169 39.3772992l.0026617.028832c-.1163067-1.244884-.1590978-2.429098-.1283732-3.552644 20.2814586-1.523631 37.9497584-12.396525 48.7026224-28.315631 3.278594-1.8509287 6.132107-4.4076598 8.559354-7.6706529z" fill="#192140"/><g transform="translate(29.279352 30.140793)"><g fill="#ef2a36"><path d="m12.3076923 53.208044c.1295547.388271.7773279 1.8982137 1.9433198 4.5298281.9796157 2.210968 3.7570851 7.5065723 7.9676114 10.4833165s7.0570513 3.6238625 9.8736827 3.6238625c10.7255076 0 12.6171602-7.7007078 11.5819245-11.8422649-1.0352356-4.1415571-3.2600311-10.8406723-9.8995163-13.6541962-3.3114335-1.4032409-7.5514587-2.5476345-11.5511602-3.7121496-3.9997014-1.1645151-8.2674335-3.1536256-11.1592475-4.829812-3.7958642-2.2002022-7.48396643-5.6083586-11.0643067-10.2244691 2.58808921 6.0397708 5.60752663 10.5264577 9.05831224 13.4600607 2.42005816 2.0573546 6.73905016 4.9431297 11.64640146 7.1183013 5.6937963 2.5237613 9.1100974 3.9216981 12.3583513 7.8948432 5.0260038 6.1476239 4.1191212 10.8715875 1.7468851 12.6835187-2.3722361 1.8119313-5.5918775.8412538-8.1523308-.7765419-2.5604533-1.6177958-3.558848-4.1415571-3.558848-5.6946411 0-1.5530839.7116495-2.5884732 1.7468851-2.5884732 1.0352357 0 2.2506041.2943603 3.0733719 1.1001011.5485119.5371606.8723986 1.2705614.97166 2.2002023-.3460799-.4745535-.7779288-.884395-1.2955466-1.2295248-.7764268-.5176946-1.7142496-.776542-2.2318674-.2588473-.5176179.5176946-.5176179 2.4590495.5176178 3.4944388 1.5528536 1.6825076 3.4937703 2.7178969 4.5290059 1.6825076 1.0352357-1.0353893 1.2662154-2.3296259.6471725-4.9180991-.6190428-2.5884732-1.7150437-5.5005056-3.5267061-7.3124368-1.8116625-1.8119313-2.3319838-2.2649141-4.4963704-2.3943377-2.1643866-.1294237-3.8599049.2588473-6.3214434.7118301-1.6410256.3019885-3.1093117.4529828-4.4048583.4529828z"/><path d="m34.5910931 44.3425233v.1941355c-2.4183536-.9922481-4.3616734-1.76879-5.8299595-2.3296259-2.2024291-.8412538-5.1174089-1.1001011-9.0688259-3.817998s-5.7004049-4.4004044-6.8663968-7.4418605c-.1491065-.3889401-.3527294-.9859728-.6108686-1.7910981 1.8755319 1.496054 5.1236891 2.6754932 9.7444719 3.5383176 4.6207827.8628244 7.6705758 1.3102306 9.1493794 1.3422188-.5637198 1.1381155-.741718 2.5026404-.5339948 4.0935749s1.5464547 3.661713 4.0161943 6.2123357z"/><path d="m42.7530364 51.4608246c-.0431848-2.8041793.6045884-5.7377823 1.9433199-8.8008089 2.0080971-4.5945399 2.9149797-5.8240647 7.1902834-9.6420627 4.2753036-3.817998 6.6072874-4.9828109 9.7813765-8.1536906 2.1160594-2.1139198 3.2604588-3.6670037 3.4331984-4.6592518-1.7273954 1.1216718-4.5128205 2.0923492-8.3562753 2.9120324-5.7651822 1.2295248-13.1497976 2.7826087-16.7125506 4.9180991-3.5627531 2.1354904-7.7732794 5.694641-8.0323887 8.5419616-.2591093 2.8473205.7773279 4.0768453 3.1093117 6.6006066 2.3319838 2.5237614 3.6275304 3.429727 5.0526316 4.982811.9500675 1.0353892 1.8137652 2.1354904 2.5910931 3.3003033z"/></g><path d="m24.2267206 19.8814515c-.5940471 1.3352545 1.4627534 3.3500951 7.5141701 4.2709808 6.0514166.9208856 10.0953032-.2192734 12.1781376-1.6177958 3.9058867-2.6226136.796575-5.3405105-9.3279352-8.1536906 2.5479082 2.0707786 3.4763833 3.6670037 2.7854251 4.7886755-1.0364372 1.6825075-2.0728745 2.4590495-6.8016194 2.4590495-2.4212593 0-4.534413-1.1648129-4.0161943-1.7472194.345479-.388271.7989203-.6686889 1.3603238-.8412538-2.065507-.3293338-3.2962763-.0489159-3.6923077.8412538z" fill="#ffa79f"/><path d="m9.13360324 26.3526345c-.17273954-2.933603.56140351-5.2847995 2.20242916-7.0535895 2.4615385-2.653185 5.3117409-6.1476238 17.6194332-7.3124368 8.2051282-.7765419 14.099865.9491069 17.6842105 5.1769464 4.0593792-1.9413549 6.5425101-3.6670037 7.4493927-5.1769464 1.3603239-2.26491403 2.0080972-3.04145599 1.1012146-6.08291201s-2.8502024-5.30637007-6.8663968-5.62992922c-4.0161943-.32355915-13.6680162-.77654196-24.2914979 2.00606673-10.6234818 2.7826087-16.58299599 9.2537917-17.61943323 12.1011122-1.03643725 2.8473206-.51821863 5.9534884.45344129 7.9595551.64777328 1.3373779 1.40350877 2.6747557 2.26720648 4.0121335z" fill="#ffa79f"/><path d="m45.6032389 65.8915627c.6909581-.4745534 1.2739541-.9059656 1.7489878-1.2942366.7125506-.5824065 1.8785425-2.1354904 4.4696356-4.0768453 2.5910932-1.9413549 4.4048583-3.4944388 6.4777328-4.5945399s3.1740891-2.2002022 4.2105264-3.7532862c1.0364372-1.5530839 1.0364372-3.041456 1.8137651-5.8240647.5182187-1.8550724 1.2739542-3.7101449 2.2672065-5.5652174-3.2820513 1.3805191-6.1754386 2.8041793-8.6801619 4.2709808-3.757085 2.2002022-6.2834008 4.4651163-7.1255061 5.4357937-.8421053.9706775-4.8582996 6.6006067-4.8582996 7.7654197 0 1.1648129.4534413 3.041456.3238866 4.3356926-.0863697.8628244-.3022942 1.9629255-.6477732 3.3003033z" fill="#ef2a36"/><path d="m25.2631579 31.7237164c-5.0958165-2.2864847-8.3562753-4.4866869-9.7813765-6.6006067-1.4251012-2.1139197-1.7273954-4.3356926-.9068826-6.6653185-2.0296896 2.2433435-3.0445344 4.1199866-3.0445344 5.6299293 0 2.264914.7773279 4.2062689 5.5060728 5.5652173 3.1524967.9059657 5.8947369 1.5962252 8.2267207 2.0707786z" fill="#ef2a36"/><path d="m30.3805668 30.364768c-5.5708502.5824064-10.7530364-3.4944388-12.5668016-6.471183s-2.5910931-6.0182002 3.6923077-8.5419616c4.1889338-1.6825076 8.442645-.3667004 12.7611336 3.9474216-5.1821863-1.8119312-8.8097166-2.0923491-10.8825911-.8412538-3.1093118 1.8766431 2.3303884 5.6810258 4.6639676 6.6653185 3.8866397 1.6393664 8.3130904 1.9197843 13.2793522.8412538-3.5843455 2.545332-7.2334683 4.0121335-10.9473684 4.4004045z" fill="#ef2a36"/></g><g transform="translate(25.522267 80.825076)"><path d="m53.2469636 14.5601618c1.7273954-1.7256488 3.0445344-2.933603 3.951417-3.6238625 1.3603239-1.03538929 3.368421-1.74721942 6.8663967-2.32962589s7.1255061 0 13.0202429-1.61779576c3.9298246-1.0785305 7.3198381-3.40815638 10.1700405-6.98887765-.5614035 2.58847321-2.0728745 5.26322885-4.5344129 8.02426694-3.6923077 4.14155716-9.2631579 6.66531846-13.0202429 6.92416586-3.7570851.2588473-7.2550608-.1941355-10.2995952-.5824065-2.0296896-.2588473-4.0809716-.1941355-6.1538461.1941355z" fill="#a3d8d5"/><path d="m43.9190283 28.4084934c1.7273955-4.2709808 2.9797571-7.0751601 3.7570851-8.4125379 1.1659919-2.0060667 3.562753-4.1415571 8.2914979-4.1415571 4.728745 0 6.8016195 1.2942366 8.1619434 1.6177957.9068825.2157061 1.7921727.4529828 2.6558704.7118302-2.5479082 0-6.3049933.9059656-11.2712551 2.7178968-4.9662618 1.8119313-8.831309 4.314122-11.5951417 7.5065723z" fill="#6ab3af"/><path d="m41.7165992 22.7785642c-.9068826 1.0785305-1.8353576 2.3943377-2.7854251 3.9474216-1.4251012 2.3296259-3.562753 6.9241659-6.8663968 10.7421638-2.2024291 2.545332-5.3117409 4.0768453-9.3279352 4.59454.9500675-.9922481 1.6194332-2.0707786 2.0080972-3.2355915.5829959-1.7472194.6477733-6.3417594 1.4898785-8.024267.8421053-1.6825075 2.1376518-3.9474216 5.3765182-5.5005055s4.0861716-1.4346406 6.0890689-1.5530839c1.3352648-.0789623 2.6739962-.4025214 4.0161943-.9706775z" fill="#a3d8d5"/><path d="m31.3522267 22.7785642c-1.0364372-.2157061-2.051282-.5824065-3.0445344-1.1001011-1.4898785-.776542-1.7489878-1.4236603-3.2388664-1.4236603-1.4898785 0-4.340081.3235592-6.4129555 1.2942366-2.0728744.9706775-5.5708502 2.6531851-8.1619433 3.429727-2.59109309.776542-4.40485827 1.1001011-6.73684208.3235592-1.55465587-.5176947-2.80701754-1.1863836-3.75708502-2.0060668.60458839 1.3373779 1.40350877 2.5021908 2.39676113 3.4944389 1.48987855 1.4883721 4.53441296 4.5298281 9.13360327 4.4651163 4.5991903-.0647119 7.125506-.776542 10.2995951-2.8473206 3.1740891-2.0707785 5.5060729-3.6885743 6.6072875-4.4004044.734143-.4745534 1.7058029-.884395 2.9149797-1.2295248z" fill="#a3d8d5"/><path d="m43.659919 22.7785642c-1.1659919 2.3727671-2.0944669 4.5729693-2.7854251 6.6006067-1.0364372 3.041456-2.3967611 8.0242669-2.7206477 11.7775531-.2159245 2.5021907-.2807018 4.4651162-.194332 5.8887765-.4689111-.0190156-.9871298-.0405862-1.5546559-.0647118-.5675261-.0241257-1.0641523-.0456963-1.4898785-.0647119-.2591094-1.8119312-.388664-3.4944388-.388664-5.0475227v-4.7886754c1.511471-1.9844962 2.7854251-3.9258511 3.8218623-5.8240647 1.5546559-2.8473206 2.3967612-4.982811 3.3684211-6.2123357.6477733-.8196832 1.2955465-1.5746546 1.9433198-2.2649141z" fill="#6ab3af"/></g></g></svg>